<svg xmlns="http://www.w3.org/2000/svg" width="278" height="140.0"><path d="M214.9.1s-8.7-.1-15.4-.1l-15.4.1c-27 2.3-28.4 16.9-28.4 36.4v19.3c.1 5.3 2.7 7.9 7.9 8 5.4 0 8-2.7 8-8V36.6c-.1-9.2-2.3-18.3 13.6-20.4.7-.1 3.7-.1 6.8-.2v39.8c0 5.3 2.6 8 8 8 5.2 0 7.8-2.7 7.9-8V16c2.7 0 4.9.1 5.7.2 15.9 2.1 13.6 11.1 13.6 20.4v19.2c0 5.3 2.6 8 8 8 5.2 0 7.8-2.7 7.9-8V36.5c.2-19.4-1.3-34.1-28.2-36.4zM249.7 76.1s-8.7-.1-15.4-.1l-15.4.1c-27 2.3-28.4 16.9-28.4 36.4v19.3c.1 5.3 2.7 7.9 7.9 8 5.4 0 8-2.7 8-8v-19.2c-.1-9.2-2.3-18.3 13.6-20.4.7-.1 3.7-.1 6.8-.2v39.8c0 5.3 2.6 8 8 8 5.2 0 7.8-2.7 7.9-8V92c2.7 0 4.9.1 5.7.2 15.9 2.1 13.6 11.1 13.6 20.4v19.2c0 5.3 2.6 8 8 8 5.2 0 7.8-2.7 7.9-8v-19.3c.2-19.5-1.2-34.1-28.2-36.4z"/><path d="M154.2 76.9h.1c-9.4-2.3-16.5-10.8-16.5-20.9 0-2.8.5-5.4 1.5-7.8 2.8-4.7 4.4-10.3 4.4-16.2 0-17.6-14.3-31.9-31.9-31.9H95.1v4.8C86.1 10.5 80 20.5 80 32c0 15.1 10.5 27.8 24.6 31 9.3 2.4 16.1 10.8 16.1 20.8 0 2.9-.6 5.6-1.6 8.1-2.7 4.7-4.3 10.1-4.3 15.9 0 11.2 5.7 21 14.4 26.7v5.2h17.4c17.6 0 31.9-14.3 31.9-31.9.1-15-10.3-27.6-24.3-30.9z" fill="#8dd4d9"/><path d="M31.7.1h16c5.3.1 7.9 2.7 8 7.9 0 5.4-2.7 8-8 8H31.8c-10.6-.1-15.9 5.2-15.9 15.9 0 10.6 5.3 15.9 15.9 15.9h15.9c5.3.1 8 2.7 8 7.9 0 5.3-2.6 8-7.9 8H31.9C10.6 63.7 0 53.1 0 31.8-.1 10.7 10.5.1 31.7.1zM65.4 76h16c5.3.1 7.9 2.7 8 7.9 0 5.4-2.7 8-8 8H65.5c-10.6-.1-15.9 5.2-15.9 15.9 0 10.6 5.3 15.9 15.9 15.9h15.9c5.3.1 8 2.7 8 7.9 0 5.3-2.6 8-7.9 8H65.6c-21.3 0-31.9-10.6-31.9-31.9C33.6 86.6 44.2 76 65.4 76z"/><path d="M87.7 63c-14.1-3.3-24.6-15.9-24.6-31C63.1 14.4 77.4.1 95 .1c17.6 0 31.9 14.3 31.9 31.9 0 5.9-1.6 11.5-4.4 16.2-1 2.4-1.5 5.1-1.5 7.8 0 10.1 7.1 18.6 16.5 20.9h-.1c14 3.4 24.4 16 24.4 31 0 17.6-14.3 31.9-31.9 31.9-17.6 0-31.9-14.3-31.9-31.9 0-5.8 1.6-11.2 4.3-15.9 1-2.5 1.6-5.3 1.6-8.1-.2-10.1-7-18.5-16.2-20.9z" fill="#008c95"/></svg>